<?xml version="1.0" encoding="utf-8"?>
<!-- Generator: Adobe Illustrator 19.2.0, SVG Export Plug-In . SVG Version: 6.00 Build 0)  -->
<svg version="1.1"
	 id="svg8104" inkscape:version="0.92.2 5c3e80d, 2017-08-06" sodipodi:docname="USB-B.svg" xmlns:cc="http://creativecommons.org/ns#" xmlns:dc="http://purl.org/dc/elements/1.1/" xmlns:inkscape="http://www.inkscape.org/namespaces/inkscape" xmlns:rdf="http://www.w3.org/1999/02/22-rdf-syntax-ns#" xmlns:sodipodi="http://sodipodi.sourceforge.net/DTD/sodipodi-0.dtd" xmlns:svg="http://www.w3.org/2000/svg"
	 xmlns="http://www.w3.org/2000/svg" xmlns:xlink="http://www.w3.org/1999/xlink" x="0px" y="0px" viewBox="0 0 34 25.5"
	 style="enable-background:new 0 0 34 25.5;" xml:space="preserve">
<style type="text/css">
	.st0{fill:none;}
	.st1{fill:#CCCACA;}
	.st2{stroke:#A1A3A1;stroke-width:7.255501e-02;stroke-miterlimit:3;}
	.st3{fill:#424242;}
	.st4{fill:#E1BA21;}
</style>
<sodipodi:namedview  bordercolor="#666666" borderopacity="1.0" fit-margin-bottom="0" fit-margin-left="0" fit-margin-right="0" fit-margin-top="0" id="base" inkscape:current-layer="layer1" inkscape:cx="-53.032455" inkscape:cy="-10.55258" inkscape:document-units="mm" inkscape:pageopacity="0.0" inkscape:pageshadow="2" inkscape:window-height="882" inkscape:window-maximized="0" inkscape:window-width="1600" inkscape:window-x="0" inkscape:window-y="18" inkscape:zoom="1.979899" pagecolor="#ffffff" showgrid="false">
	</sodipodi:namedview>
<g id="layer1" transform="translate(-113.84542,-95.231797)" inkscape:groupmode="layer" inkscape:label="Layer 1">
	<path id="path10059" inkscape:connector-curvature="0" class="st0" d="M145,95.2v25.5h-28.3V95.2H145z"/>
	<path id="path10061" inkscape:connector-curvature="0" class="st0" d="M144.2,115.8c0,2.5-2,4.5-4.4,4.5h-17.9
		c-2.4,0-4.4-2-4.4-4.5v-15.7c0-2.5,2-4.5,4.4-4.5h17.9c2.4,0,4.4,2,4.4,4.5V115.8z"/>
	<path id="path10063" inkscape:connector-curvature="0" class="st1" d="M124.6,98.2c-0.5,0-1.2,0.3-1.6,0.6l-2.9,2.7
		c-0.4,0.3-0.6,1-0.6,1.5v13c0,1,0.8,1.7,1.8,1.7h19.1c1,0,1.8-0.8,1.8-1.7v-13c0-0.5-0.3-1.1-0.6-1.5l-2.9-2.7
		c-0.4-0.3-1.1-0.6-1.6-0.6H124.6z"/>
	<path id="path10065" inkscape:connector-curvature="0" class="st2" d="M139.4,102.2v11h-16.6v-11H139.4z"/>
	<path id="path10067" inkscape:connector-curvature="0" class="st3" d="M136.6,104.9v5.9h-11v-5.9H136.6z"/>
	<path id="path10069" inkscape:connector-curvature="0" class="st4" d="M127.1,104.4v0.9h2.6v-0.9H127.1z"/>
	<path id="path10071" inkscape:connector-curvature="0" class="st4" d="M132.4,104.4v0.9h2.6v-0.9H132.4z"/>
</g>
</svg>
